{
  "accessors": [
    {
      "bufferView": 0,
      "byteOffset": 0,
      "componentType": 5123,
      "count": 201516,
      "max": [
        65534.0
      ],
      "min": [
        0.0
      ],
      "name": "buffer-0-group-0-mesh-0-indices",
      "type": "SCALAR"
    },
    {
      "bufferView": 1,
      "byteOffset": 0,
      "componentType": 5126,
      "count": 65535,
      "max": [
        0.27828899025917053,
        0.5876110196113586,
        2.18441104888916
      ],
      "min": [
        -0.5230410099029541,
        -3.1858959197998047,
        1.1344430446624756
      ],
      "name": "buffer-0-group-0-mesh-0-position",
      "type": "VEC3"
    },
    {
      "bufferView": 1,
      "byteOffset": 786420,
      "componentType": 5126,
      "count": 65535,
      "max": [
        0.999972939491272,
        1.0,
        0.9999997019767761
      ],
      "min": [
        -0.9999847412109375,
        -1.0,
        -0.9999968409538269
      ],
      "name": "buffer-0-group-0-mesh-0-normal",
      "type": "VEC3"
    },
    {
      "bufferView": 2,
      "byteOffset": 0,
      "componentType": 5126,
      "count": 65535,
      "max": [
        1.0,
        1.0,
        1.0,
        1.0
      ],
      "min": [
        0.0,
        0.0,
        0.0,
        1.0
      ],
      "name": "buffer-0-group-0-mesh-0-color",
      "type": "VEC4"
    },
    {
      "bufferView": 0,
      "byteOffset": 403032,
      "componentType": 5123,
      "count": 189909,
      "max": [
        65533.0
      ],
      "min": [
        0.0
      ],
      "name": "buffer-0-group-0-mesh-1-indices",
      "type": "SCALAR"
    },
    {
      "bufferView": 1,
      "byteOffset": 1572840,
      "componentType": 5126,
      "count": 65534,
      "max": [
        0.279915988445282,
        0.5876110196113586,
        2.18441104888916
      ],
      "min": [
        -0.5230410099029541,
        -3.1858959197998047,
        1.1333379745483398
      ],
      "name": "buffer-0-group-0-mesh-1-position",
      "type": "VEC3"
    },
    {
      "bufferView": 1,
      "byteOffset": 2359248,
      "componentType": 5126,
      "count": 65534,
      "max": [
        0.9999766945838928,
        1.0,
        0.9999870657920837
      ],
      "min": [
        -0.9998955726623535,
        -1.0,
        -0.9999968409538269
      ],
      "name": "buffer-0-group-0-mesh-1-normal",
      "type": "VEC3"
    },
    {
      "bufferView": 2,
      "byteOffset": 1048560,
      "componentType": 5126,
      "count": 65534,
      "max": [
        1.0,
        1.0,
        1.0,
        1.0
      ],
      "min": [
        0.0,
        0.0,
        0.0,
        1.0
      ],
      "name": "buffer-0-group-0-mesh-1-color",
      "type": "VEC4"
    },
    {
      "bufferView": 0,
      "byteOffset": 782850,
      "componentType": 5123,
      "count": 170073,
      "max": [
        65533.0
      ],
      "min": [
        0.0
      ],
      "name": "buffer-0-group-0-mesh-2-indices",
      "type": "SCALAR"
    },
    {
      "bufferView": 1,
      "byteOffset": 3145656,
      "componentType": 5126,
      "count": 65534,
      "max": [
        0.279915988445282,
        0.5876110196113586,
        2.18441104888916
      ],
      "min": [
        -0.5232470035552979,
        -3.1858959197998047,
        1.1342589855194092
      ],
      "name": "buffer-0-group-0-mesh-2-position",
      "type": "VEC3"
    },
    {
      "bufferView": 1,
      "byteOffset": 3932064,
      "componentType": 5126,
      "count": 65534,
      "max": [
        0.9999766945838928,
        1.0,
        1.0
      ],
      "min": [
        -1.0,
        -1.0,
        -0.9999886751174927
      ],
      "name": "buffer-0-group-0-mesh-2-normal",
      "type": "VEC3"
    },
    {
      "bufferView": 2,
      "byteOffset": 2097104,
      "componentType": 5126,
      "count": 65534,
      "max": [
        1.0,
        1.0,
        1.0,
        1.0
      ],
      "min": [
        0.0,
        0.0,
        0.0,
        1.0
      ],
      "name": "buffer-0-group-0-mesh-2-color",
      "type": "VEC4"
    },
    {
      "bufferView": 0,
      "byteOffset": 1122996,
      "componentType": 5123,
      "count": 129705,
      "max": [
        55978.0
      ],
      "min": [
        0.0
      ],
      "name": "buffer-0-group-0-mesh-3-indices",
      "type": "SCALAR"
    },
    {
      "bufferView": 1,
      "byteOffset": 4718472,
      "componentType": 5126,
      "count": 55979,
      "max": [
        0.279915988445282,
        0.5876110196113586,
        2.18441104888916
      ],
      "min": [
        -0.5232470035552979,
        -3.1858959197998047,
        1.1333379745483398
      ],
      "name": "buffer-0-group-0-mesh-3-position",
      "type": "VEC3"
    },
    {
      "bufferView": 1,
      "byteOffset": 5390220,
      "componentType": 5126,
      "count": 55979,
      "max": [
        0.9999766945838928,
        1.0,
        0.9999870657920837
      ],
      "min": [
        -0.9996901154518127,
        -1.0,
        -0.9999968409538269
      ],
      "name": "buffer-0-group-0-mesh-3-normal",
      "type": "VEC3"
    },
    {
      "bufferView": 2,
      "byteOffset": 3145648,
      "componentType": 5126,
      "count": 55979,
      "max": [
        1.0,
        1.0,
        1.0,
        1.0
      ],
      "min": [
        0.0,
        0.0,
        0.0,
        1.0
      ],
      "name": "buffer-0-group-0-mesh-3-color",
      "type": "VEC4"
    }
  ],
  "asset": {
    "generator": "Obj2GltfConverter",
    "version": "2.0"
  },
  "bufferViews": [
    {
      "buffer": 0,
      "byteLength": 1382406,
      "byteOffset": 0,
      "name": "buffer-0-bufferview-ushort",
      "target": 34963
    },
    {
      "buffer": 0,
      "byteLength": 6061968,
      "byteOffset": 1382412,
      "byteStride": 12,
      "name": "buffer-0-bufferview-vec3",
      "target": 34962
    },
    {
      "buffer": 0,
      "byteLength": 4041312,
      "byteOffset": 7444384,
      "byteStride": 16,
      "name": "buffer-0-bufferview-vec4",
      "target": 34962
    }
  ],
  "buffers": [
    {
      "byteLength": 11485696,
      "name": "buffer-0",
      "uri": "person three.bin"
    }
  ],
  "materials": [
    {
      "alphaMode": "OPAQUE",
      "doubleSided": true,
      "name": "",
      "pbrMetallicRoughness": {
        "baseColorFactor": [
          1.0,
          1.0,
          1.0,
          1.0
        ],
        "metallicFactor": 0.0,
        "roughnessFactor": 0.9699476628648295
      }
    }
  ],
  "meshes": [
    {
      "name": "buffer-0-mesh-0",
      "primitives": [
        {
          "attributes": {
            "POSITION": 1,
            "NORMAL": 2,
            "COLOR_0": 3
          },
          "indices": 0,
          "material": 0,
          "mode": 4
        },
        {
          "attributes": {
            "POSITION": 5,
            "NORMAL": 6,
            "COLOR_0": 7
          },
          "indices": 4,
          "material": 0,
          "mode": 4
        },
        {
          "attributes": {
            "POSITION": 9,
            "NORMAL": 10,
            "COLOR_0": 11
          },
          "indices": 8,
          "material": 0,
          "mode": 4
        },
        {
          "attributes": {
            "POSITION": 13,
            "NORMAL": 14,
            "COLOR_0": 15
          },
          "indices": 12,
          "material": 0,
          "mode": 4
        }
      ]
    }
  ],
  "nodes": [
    {
      "mesh": 0,
      "name": "node-0"
    }
  ],
  "scenes": [
    {
      "name": "scene-0",
      "nodes": [
        0
      ]
    }
  ]
}